<mxfile host="app.diagrams.net" modified="2022-09-27T08:09:51.917Z" agent="5.0 (Windows NT 10.0; Win64; x64) AppleWebKit/537.36 (KHTML, like Gecko) Chrome/105.0.0.0 Safari/537.36 Edg/105.0.1343.50" etag="FnWPetXctB-AVIiWqV-H" version="20.3.6" type="github">
  <diagram id="mXWO4GN3eBxZ8IwIYVMz" name="Page-1">
    <mxGraphModel dx="1485" dy="819" grid="1" gridSize="10" guides="1" tooltips="1" connect="1" arrows="1" fold="1" page="1" pageScale="1" pageWidth="827" pageHeight="1169" math="0" shadow="0">
      <root>
        <mxCell id="0" />
        <mxCell id="1" parent="0" />
        <mxCell id="RUqhI57rxPqJKJZaMw4q-2" value="" style="sketch=0;pointerEvents=1;shadow=0;dashed=0;html=1;strokeColor=none;fillColor=#505050;labelPosition=center;verticalLabelPosition=bottom;verticalAlign=top;outlineConnect=0;align=center;shape=mxgraph.office.devices.cell_phone_iphone_standalone;" vertex="1" parent="1">
          <mxGeometry x="640" y="134.5" width="42.26" height="71" as="geometry" />
        </mxCell>
        <mxCell id="RUqhI57rxPqJKJZaMw4q-3" value="" style="sketch=0;outlineConnect=0;fontColor=#232F3E;gradientColor=none;fillColor=#232F3D;strokeColor=none;dashed=0;verticalLabelPosition=bottom;verticalAlign=top;align=center;html=1;fontSize=12;fontStyle=0;aspect=fixed;pointerEvents=1;shape=mxgraph.aws4.email_2;" vertex="1" parent="1">
          <mxGeometry x="940" y="400" width="56.51" height="35.5" as="geometry" />
        </mxCell>
        <mxCell id="RUqhI57rxPqJKJZaMw4q-4" value="" style="shape=image;html=1;verticalAlign=top;verticalLabelPosition=bottom;labelBackgroundColor=#ffffff;imageAspect=0;aspect=fixed;image=https://cdn0.iconfinder.com/data/icons/phosphor-regular-vol-4/256/shopping-cart-simple-128.png" vertex="1" parent="1">
          <mxGeometry x="940" y="300" width="50" height="50" as="geometry" />
        </mxCell>
        <mxCell id="RUqhI57rxPqJKJZaMw4q-12" value="" style="edgeStyle=orthogonalEdgeStyle;rounded=0;orthogonalLoop=1;jettySize=auto;html=1;entryX=0;entryY=0.5;entryDx=0;entryDy=0;" edge="1" parent="1" source="RUqhI57rxPqJKJZaMw4q-7" target="RUqhI57rxPqJKJZaMw4q-11">
          <mxGeometry relative="1" as="geometry" />
        </mxCell>
        <mxCell id="RUqhI57rxPqJKJZaMw4q-7" value="" style="strokeWidth=2;html=1;shape=mxgraph.flowchart.database;whiteSpace=wrap;" vertex="1" parent="1">
          <mxGeometry x="50" y="108.75" width="110" height="120" as="geometry" />
        </mxCell>
        <mxCell id="RUqhI57rxPqJKJZaMw4q-8" value="Data dump from 3rd party provider in DB" style="text;html=1;strokeColor=none;fillColor=none;align=center;verticalAlign=middle;whiteSpace=wrap;rounded=0;" vertex="1" parent="1">
          <mxGeometry x="65" y="160" width="80" height="30" as="geometry" />
        </mxCell>
        <mxCell id="RUqhI57rxPqJKJZaMw4q-9" value="Menu Collection - High Level Architecture&amp;nbsp;" style="text;html=1;strokeColor=none;fillColor=none;align=center;verticalAlign=middle;whiteSpace=wrap;rounded=0;" vertex="1" parent="1">
          <mxGeometry x="169" y="10" width="490" height="30" as="geometry" />
        </mxCell>
        <mxCell id="RUqhI57rxPqJKJZaMw4q-10" value="1st time" style="text;html=1;strokeColor=none;fillColor=none;align=center;verticalAlign=middle;whiteSpace=wrap;rounded=0;" vertex="1" parent="1">
          <mxGeometry x="384" y="43.25" width="60" height="30" as="geometry" />
        </mxCell>
        <mxCell id="RUqhI57rxPqJKJZaMw4q-14" value="" style="edgeStyle=orthogonalEdgeStyle;rounded=0;orthogonalLoop=1;jettySize=auto;html=1;" edge="1" parent="1" source="RUqhI57rxPqJKJZaMw4q-11" target="RUqhI57rxPqJKJZaMw4q-13">
          <mxGeometry relative="1" as="geometry" />
        </mxCell>
        <mxCell id="RUqhI57rxPqJKJZaMw4q-11" value="Data Transformation" style="rounded=1;whiteSpace=wrap;html=1;" vertex="1" parent="1">
          <mxGeometry x="230" y="140" width="120" height="60" as="geometry" />
        </mxCell>
        <mxCell id="RUqhI57rxPqJKJZaMw4q-16" value="" style="edgeStyle=orthogonalEdgeStyle;rounded=0;orthogonalLoop=1;jettySize=auto;html=1;" edge="1" parent="1" source="RUqhI57rxPqJKJZaMw4q-13">
          <mxGeometry relative="1" as="geometry">
            <mxPoint x="630" y="170" as="targetPoint" />
          </mxGeometry>
        </mxCell>
        <mxCell id="RUqhI57rxPqJKJZaMw4q-13" value="API" style="whiteSpace=wrap;html=1;rounded=1;" vertex="1" parent="1">
          <mxGeometry x="430" y="140" width="120" height="60" as="geometry" />
        </mxCell>
      </root>
    </mxGraphModel>
  </diagram>
</mxfile>
